<svg version="1.1" id="Layer_1" xmlns="http://www.w3.org/2000/svg" xmlns:xlink="http://www.w3.org/1999/xlink" x="0px" y="0px"
	 width="100%" viewBox="8 0 1008 1008" xml:space="preserve">
<path fill="#000000" opacity="1.000000" stroke="none" 
	d="
M520.999329,97.867172 
	C536.000183,97.739182 550.314575,99.585136 564.693542,101.254623 
	C574.098145,102.346565 583.539001,103.485939 592.749451,105.315414 
	C607.306519,108.206909 621.799744,111.686783 635.964661,116.289452 
	C648.573914,120.386620 661.137573,124.612869 673.295837,129.936661 
	C686.468628,135.704712 699.605469,141.426407 712.085449,148.769730 
	C723.074890,155.236008 734.081543,161.619461 744.734009,168.641830 
	C752.475159,173.744965 759.921631,179.219269 767.293091,184.823502 
	C780.133240,194.585342 791.949097,205.542282 803.592896,216.633896 
	C811.868713,224.517273 819.375305,233.232727 826.961426,241.810181 
	C839.630005,256.134460 850.923218,271.523041 861.144836,287.674072 
	C869.557129,300.966187 877.572571,314.489441 884.068726,328.866852 
	C887.408142,336.257599 891.133911,343.452332 894.308838,350.945648 
	C900.049988,364.495819 904.862000,378.349731 909.260315,392.351898 
	C913.770691,406.710815 917.263245,421.396027 919.816833,436.188263 
	C923.575378,457.960236 925.888916,479.923584 925.970703,502.114502 
	C926.015869,514.365784 925.908264,526.603943 925.209045,538.813171 
	C924.573120,549.917297 924.079041,561.170776 921.830750,572.007385 
	C918.657898,587.299866 916.085266,602.708984 911.822876,617.848083 
	C907.843323,631.982727 903.616272,646.062561 898.391541,659.669861 
	C891.613037,677.323730 883.704224,694.577698 874.076599,711.032776 
	C863.480591,729.142822 852.447327,746.952148 839.408691,763.341797 
	C822.324341,784.816956 803.446472,804.634521 782.537598,822.560974 
	C759.853394,842.009521 735.352051,858.570679 709.175293,872.921814 
	C683.894531,886.781677 657.326416,897.434814 629.840393,905.685547 
	C610.052429,911.625549 589.750793,915.922302 569.219055,918.454285 
	C544.803223,921.465271 520.211792,923.688721 495.633575,921.965027 
	C479.132690,920.807800 462.492371,919.971802 446.190247,916.835876 
	C419.629578,911.726624 393.382263,905.453064 368.073639,895.562500 
	C353.120361,889.718750 338.244171,883.714539 324.078552,876.210754 
	C308.468658,867.942078 293.490601,858.593079 278.810181,848.690674 
	C257.917786,834.598083 239.057404,818.160095 221.194397,800.575378 
	C207.579330,787.172302 195.234161,772.584534 183.738159,757.246643 
	C167.046921,734.977356 152.755783,711.299072 140.656097,686.299866 
	C132.605377,669.666199 125.695343,652.442444 120.267868,634.845642 
	C115.321976,618.810303 110.606194,602.550781 107.968483,585.890869 
	C104.445168,563.637329 101.399948,541.380249 101.107002,518.707092 
	C100.904808,503.058197 101.434364,487.471405 102.579109,471.950378 
	C103.371323,461.209198 104.980499,450.442902 107.179199,439.746765 
	C109.191681,429.956482 110.246178,419.809753 112.994408,410.228363 
	C116.246315,398.890961 119.151703,387.434265 123.066063,376.245697 
	C129.275848,358.496063 136.380447,341.121826 144.827225,324.402191 
	C153.084763,308.057220 162.516556,292.313507 172.993149,277.191772 
	C180.927704,265.739197 189.249542,254.588242 198.233856,244.014465 
	C210.064896,230.090363 222.422928,216.623962 236.285324,204.555130 
	C246.575150,195.596619 256.955811,186.792404 267.939209,178.722549 
	C278.930511,170.646896 290.278534,163.106094 301.961945,156.029190 
	C315.206848,148.006454 329.015137,141.156891 343.038605,134.672928 
	C360.226105,126.726044 377.864563,120.015770 396.065308,114.745850 
	C415.389191,109.150719 434.925568,104.483643 454.865967,101.840546 
	C476.631042,98.955597 498.488281,96.977852 520.999329,97.867172 
M661.145630,188.179794 
	C660.217712,187.823868 659.264465,187.522385 658.365540,187.104126 
	C628.875793,173.383804 597.692505,165.170135 565.820129,159.692886 
	C552.602722,157.421478 539.029663,156.668671 525.591309,156.344360 
	C492.754059,155.551849 460.278992,158.439651 428.300659,166.655106 
	C409.311371,171.533569 390.706848,177.430023 372.804291,185.273788 
	C353.165680,193.878159 334.332489,204.078934 316.550446,216.187057 
	C298.366791,228.568710 281.405212,242.397888 265.521454,257.591522 
	C252.051453,270.476288 240.325745,284.859863 229.010605,299.617371 
	C220.748825,310.392609 213.118271,321.691559 206.694885,333.538971 
	C193.213547,358.404114 180.916153,383.907562 173.616119,411.450867 
	C170.441345,423.429382 167.200897,435.384155 165.208054,447.656311 
	C163.800308,456.325226 162.801773,465.041260 161.518890,473.710052 
	C159.537704,487.097443 159.981857,500.557556 159.538925,513.959290 
	C159.351807,519.621277 160.362793,525.550598 160.181503,531.338745 
	C159.918671,539.731140 161.535339,547.957092 162.682602,556.108704 
	C164.637009,569.995361 167.172150,583.822571 170.755829,597.498413 
	C176.101227,617.897156 182.823822,637.718201 191.556366,656.852478 
	C202.696442,681.262146 216.533264,704.031982 233.025665,725.271912 
	C243.146652,738.306213 253.878906,750.724304 265.644897,762.240051 
	C278.090942,774.421570 291.385956,785.571960 305.514099,795.847534 
	C315.433533,803.062012 325.551514,810.002380 336.160156,815.945862 
	C353.016937,825.389771 370.431244,833.824707 388.585480,840.729004 
	C401.879822,845.785095 415.447632,849.949890 429.165894,853.297058 
	C439.189789,855.742737 449.439606,857.717407 459.771759,859.154846 
	C470.414429,860.635498 480.966583,862.372559 491.743835,862.770630 
	C504.362000,863.236755 516.960938,863.555847 529.590698,863.207336 
	C540.578613,862.904114 551.582458,862.008545 562.321960,860.218506 
	C575.525452,858.017822 588.719604,855.442627 601.765747,852.093140 
	C622.857117,846.678101 643.181213,839.421570 662.923401,830.319031 
	C682.301025,821.384583 700.450623,810.494873 717.951477,798.268066 
	C734.124207,786.969055 748.996704,774.281433 762.983276,760.478638 
	C777.669373,745.985657 790.766479,730.202820 802.847351,713.414612 
	C812.663269,699.773926 821.199341,685.411804 828.918579,670.654419 
	C835.148376,658.744385 840.670776,646.357422 845.367981,633.639099 
	C851.657776,616.608765 856.409912,599.159546 860.395020,581.521240 
	C864.143494,564.930664 866.288879,547.948486 867.332397,531.038208 
	C868.909790,505.477539 867.823730,479.852203 863.440552,454.516022 
	C860.568726,437.916290 856.605164,421.578522 851.856628,405.383911 
	C845.900635,385.071594 837.471863,365.802551 828.082214,346.977631 
	C818.879822,328.528168 807.445557,311.391449 794.911499,294.968323 
	C774.802124,268.619446 751.499268,245.506409 724.925537,225.804291 
	C705.205078,211.183319 684.201233,198.553818 661.145630,188.179794 
z"/>
<path fill="#000000" opacity="1.000000" stroke="none" 
	d="
M474.625458,285.625793 
	C486.788391,273.498016 498.820496,261.736450 510.559784,249.689545 
	C514.015869,246.142914 516.132202,246.550095 519.456421,249.879761 
	C578.076355,308.594818 636.826965,367.179260 695.502625,425.838776 
	C722.157288,452.486206 748.671997,479.273804 775.358032,505.889679 
	C778.710083,509.232910 778.178223,511.533356 775.093140,514.604614 
	C738.906250,550.629761 702.783447,586.719482 666.678528,622.826965 
	C619.969421,669.539429 573.291809,716.283325 526.600952,763.014038 
	C524.015137,765.601990 521.380249,768.143433 518.862244,770.795837 
	C516.148804,773.654053 513.687744,773.778687 510.796356,770.875549 
	C486.818878,746.799683 462.762146,722.802734 438.765472,698.745911 
	C434.396423,694.365967 434.432068,692.894226 438.863586,688.464355 
	C475.854614,651.486694 512.879089,614.542603 549.848206,577.543091 
	C552.613831,574.775146 555.991150,572.424072 557.418579,568.587708 
	C555.867737,566.041077 553.544983,566.425049 551.468811,566.424744 
	C471.972992,566.413574 392.476074,566.211731 312.982147,566.605774 
	C293.487366,566.702332 274.005463,565.921387 254.513947,566.374634 
	C248.919983,566.504700 247.932388,565.348633 247.924866,559.538086 
	C247.881943,526.373169 247.865982,493.208282 247.875351,460.043365 
	C247.877029,454.068939 248.418854,453.283661 254.949783,453.208557 
	C269.778259,453.038025 284.610870,453.206390 299.441620,453.273712 
	C302.104401,453.285797 304.766327,453.565521 307.428741,453.566986 
	C385.591278,453.609528 463.753845,453.640167 541.916382,453.634308 
	C545.573486,453.634033 549.233826,453.326508 552.886353,453.072052 
	C554.562195,452.955292 556.416199,452.691772 556.978333,450.803986 
	C557.479248,449.121613 555.984680,448.069702 554.972900,447.042419 
	C546.216309,438.151611 537.445374,429.274536 528.620483,420.451538 
	C508.375610,400.211151 488.105988,379.995453 467.830200,359.786041 
	C457.923279,349.911591 448.097015,339.951172 437.985229,330.290344 
	C434.763550,327.212341 434.827667,325.305847 437.960083,322.244141 
	C450.227692,310.253448 462.261841,298.023865 474.625458,285.625793 
z"/>
</svg>